<svg width="20" height="20" viewBox="0 0 20 20" fill="none" xmlns="http://www.w3.org/2000/svg">
<path d="M1.48515 20C1.08911 20 0.742574 19.8517 0.445545 19.555C0.148515 19.2583 0 18.9122 0 18.5167V3.68356C0 3.28801 0.148515 2.9419 0.445545 2.64524C0.742574 2.34858 1.08911 2.20025 1.48515 2.20025H11.5099L10.0248 3.68356H1.48515V18.5167H16.3366V9.91347L17.8218 8.43016V18.5167C17.8218 18.9122 17.6733 19.2583 17.3762 19.555C17.0792 19.8517 16.7327 20 16.3366 20H1.48515ZM5.94059 14.0667V9.86403L15.396 0.420272C15.5446 0.271941 15.7096 0.164813 15.8911 0.0988875C16.0726 0.0329625 16.2541 0 16.4356 0C16.6172 0 16.8013 0.0370828 16.9881 0.111248C17.1748 0.185414 17.3454 0.296663 17.5 0.444994L19.5545 2.52163C19.6965 2.6693 19.8063 2.8323 19.8837 3.01063C19.9612 3.18912 20 3.37058 20 3.55501C20 3.7396 19.9629 3.92666 19.8886 4.11619C19.8144 4.30573 19.703 4.47466 19.5545 4.62299L10.1485 14.0667H5.94059ZM7.42574 12.5834H9.5297L15.7921 6.3288L14.7277 5.29048L13.6634 4.25216L7.42574 10.4574V12.5834Z" fill="black"/>
</svg>
