<svg width="48" height="48" viewBox="0 0 48 48" fill="none" xmlns="http://www.w3.org/2000/svg">
<path d="M15.45 16.95C15.85 16.95 16.2 16.8 16.5 16.5C16.8 16.2 16.95 15.85 16.95 15.45C16.95 15.05 16.8 14.7 16.5 14.4C16.2 14.1 15.85 13.95 15.45 13.95C15.05 13.95 14.7 14.1 14.4 14.4C14.1 14.7 13.95 15.05 13.95 15.45C13.95 15.85 14.1 16.2 14.4 16.5C14.7 16.8 15.05 16.95 15.45 16.95ZM15.45 25.5C15.85 25.5 16.2 25.35 16.5 25.05C16.8 24.75 16.95 24.4 16.95 24C16.95 23.6 16.8 23.25 16.5 22.95C16.2 22.65 15.85 22.5 15.45 22.5C15.05 22.5 14.7 22.65 14.4 22.95C14.1 23.25 13.95 23.6 13.95 24C13.95 24.4 14.1 24.75 14.4 25.05C14.7 25.35 15.05 25.5 15.45 25.5ZM15.45 34.05C15.85 34.05 16.2 33.9 16.5 33.6C16.8 33.3 16.95 32.95 16.95 32.55C16.95 32.15 16.8 31.8 16.5 31.5C16.2 31.2 15.85 31.05 15.45 31.05C15.05 31.05 14.7 31.2 14.4 31.5C14.1 31.8 13.95 32.15 13.95 32.55C13.95 32.95 14.1 33.3 14.4 33.6C14.7 33.9 15.05 34.05 15.45 34.05ZM9 42C8.2 42 7.5 41.7 6.9 41.1C6.3 40.5 6 39.8 6 39V9C6 8.2 6.3 7.5 6.9 6.9C7.5 6.3 8.2 6 9 6H32.1L42 15.9V39C42 39.8 41.7 40.5 41.1 41.1C40.5 41.7 39.8 42 39 42H9ZM9 39H39V17.5715H30.45V9H9V39Z" fill="white"/>
</svg>
