<svg width="48" height="48" viewBox="0 0 48 48" fill="none" xmlns="http://www.w3.org/2000/svg">
<path d="M8 39.9999V35.2999C8 34.0333 8.31667 32.9499 8.95 32.0499C9.58333 31.15 10.4 30.4666 11.4 30C13.6333 29 15.775 28.25 17.825 27.75C19.875 27.25 21.9333 27 24 27C25.2673 27 26.5175 27.1 27.7505 27.2999C28.9835 27.5 30.2333 27.7833 31.5 28.15L29.1 30.5C28.2333 30.3333 27.385 30.2083 26.555 30.125C25.7253 30.0416 24.8737 30 24 30C22.1 30 20.25 30.1916 18.45 30.5749C16.65 30.9583 14.7 31.6666 12.6 32.6999C12.1333 32.9333 11.75 33.2916 11.45 33.775C11.15 34.2583 11 34.7666 11 35.2999V37H25V39.9999H8ZM28 42V35.8499L39.05 24.8499C39.35 24.55 39.6833 24.3333 40.05 24.2C40.4167 24.0666 40.7833 24 41.15 24C41.55 24 41.9333 24.075 42.3 24.2249C42.6667 24.375 43 24.5999 43.3 24.9L45.15 26.75C45.45 27.0499 45.6667 27.3833 45.8 27.75C45.9333 28.1166 46 28.4833 46 28.85C46 29.2166 45.925 29.5916 45.775 29.975C45.625 30.3583 45.4015 30.6999 45.1045 31L34.15 42H28ZM31 38.9999H32.9L38.95 32.9L38.05 31.9499L37.1 31.0499L31 37.0999V38.9999ZM38.05 31.9499L37.1 31.0499L38.95 32.9L38.05 31.9499ZM24 23.95C21.9 23.95 20.125 23.225 18.675 21.775C17.225 20.325 16.5 18.55 16.5 16.45C16.5 14.35 17.225 12.575 18.675 11.125C20.125 9.67495 21.9 8.94995 24 8.94995C26.1 8.94995 27.875 9.67495 29.325 11.125C30.775 12.575 31.5 14.35 31.5 16.45C31.5 18.55 30.775 20.325 29.325 21.775C27.875 23.225 26.1 23.95 24 23.95ZM24 20.95C25.2667 20.95 26.3333 20.5166 27.2 19.65C28.0667 18.7833 28.5 17.7166 28.5 16.45C28.5 15.1833 28.0667 14.1166 27.2 13.25C26.3333 12.3833 25.2667 11.95 24 11.95C22.7333 11.95 21.6667 12.3833 20.8 13.25C19.9333 14.1166 19.5 15.1833 19.5 16.45C19.5 17.7166 19.9333 18.7833 20.8 19.65C21.6667 20.5166 22.7333 20.95 24 20.95Z" fill="white"/>
</svg>
