<svg width="48" height="48" viewBox="0 0 48 48" fill="none" xmlns="http://www.w3.org/2000/svg">
<path d="M34.2 28.95C32.884 28.95 31.7717 28.4956 30.863 27.587C29.9543 26.6783 29.5 25.566 29.5 24.25C29.5 22.934 29.9543 21.8216 30.863 20.913C31.7717 20.0043 32.884 19.55 34.2 19.55C35.516 19.55 36.6283 20.0043 37.537 20.913C38.4457 21.8216 38.9 22.934 38.9 24.25C38.9 25.566 38.4457 26.6783 37.537 27.587C36.6283 28.4956 35.516 28.95 34.2 28.95ZM24.4 40V37.45C24.4 36.5833 24.5833 35.8416 24.95 35.225C25.3167 34.6083 25.8333 34.1333 26.5 33.8C27.7333 33.1666 28.9833 32.7 30.25 32.4C31.5167 32.1 32.8333 31.95 34.2 31.95C35.5667 31.95 36.8833 32.0916 38.15 32.375C39.4167 32.6583 40.6667 33.1333 41.9 33.8C42.5667 34.1 43.0833 34.5666 43.45 35.2C43.8167 35.8333 44 36.5833 44 37.45V40H24.4ZM20 23.95C17.8 23.95 16 23.25 14.6 21.85C13.2 20.45 12.5 18.65 12.5 16.45C12.5 14.25 13.2 12.45 14.6 11.05C16 9.64995 17.8 8.94995 20 8.94995C22.2 8.94995 24 9.64995 25.4 11.05C26.8 12.45 27.5 14.25 27.5 16.45C27.5 18.65 26.8 20.45 25.4 21.85C24 23.25 22.2 23.95 20 23.95ZM4 40V35.3C4 34.1666 4.28333 33.125 4.85 32.175C5.41667 31.225 6.26117 30.5 7.3835 30C9.62783 29 11.775 28.25 13.825 27.75C15.875 27.25 17.9292 27 19.9875 27C21.0625 27 22.0167 27.05 22.85 27.15C23.6833 27.25 24.5833 27.4 25.55 27.6L24.275 28.875L23 30.15C22.5667 30.0833 22.1 30.0416 21.6 30.025C21.1 30.0083 20.5667 30 20 30C18.1123 30 16.2655 30.1916 14.4595 30.575C12.6532 30.9583 10.7 31.6666 8.6 32.7C8.13333 32.9333 7.75 33.3 7.45 33.8C7.15 34.3 7 34.8 7 35.3V37H21.4V40H4ZM20 20.95C21.3 20.95 22.375 20.525 23.225 19.675C24.075 18.825 24.5 17.75 24.5 16.45C24.5 15.15 24.075 14.075 23.225 13.225C22.375 12.375 21.3 11.95 20 11.95C18.7 11.95 17.625 12.375 16.775 13.225C15.925 14.075 15.5 15.15 15.5 16.45C15.5 17.75 15.925 18.825 16.775 19.675C17.625 20.525 18.7 20.95 20 20.95Z" fill="white"/>
</svg>
