<svg width="121" height="125" viewBox="0 0 121 125" fill="none" xmlns="http://www.w3.org/2000/svg">
<path d="M58.6143 0.0704117C56.2287 0.1642 55.2504 0.271378 51.9804 0.740311C50.3051 0.994865 49.6216 1.11545 48.3618 1.3968C47.1289 1.66476 46.6732 1.78534 45.6815 2.0667C45.4268 2.14709 44.5557 2.37485 43.7382 2.58922C42.9341 2.81698 41.8753 3.15192 41.4063 3.33949C40.9238 3.52707 40.4815 3.68784 40.4145 3.68784C40.3475 3.68784 39.8383 3.90221 39.2754 4.17017C38.7259 4.43812 37.9218 4.75967 37.5197 4.89365C36.796 5.12141 32.7889 7.06411 31.6631 7.7206C30.5105 8.4039 29.5456 9.0068 28.7147 9.54272C28.2456 9.86427 27.3075 10.4538 26.624 10.8825C25.9405 11.2978 25.1766 11.8338 24.9086 12.0615C24.6539 12.3027 24.0776 12.7314 23.6354 13.0262C22.0272 14.1114 17.1221 18.5863 16.0767 19.9261C15.8087 20.261 15.2994 20.9041 14.9242 21.3462C14.5623 21.7884 14.1201 22.3243 13.9592 22.5253C13.7984 22.7396 13.45 23.155 13.1819 23.4497C12.9139 23.7445 12.5654 24.2134 12.418 24.4948C12.284 24.7761 12.0026 25.1914 11.8149 25.4058C11.4397 25.8211 10.7562 26.8662 10.2871 27.737C10.1263 28.0318 9.71084 28.6749 9.34899 29.1572C8.39745 30.4568 6.68201 33.5785 5.77069 35.7088C5.62327 36.0437 5.26142 36.861 4.96657 37.5175C4.67173 38.1874 4.29648 39.1386 4.13566 39.6612C3.96143 40.1703 3.66659 41.0545 3.45216 41.6038C3.0367 42.7159 2.38001 45.0069 2.15218 46.1591C1.87074 47.5525 1.20065 51.1833 1.12024 51.7862C1.08003 52.1212 0.986217 52.7777 0.905806 53.26C0.396534 56.6229 0.262516 59.1551 0.570759 59.892C0.825394 60.4949 4.02844 63.7371 4.91297 64.2865C5.28822 64.5276 6.06553 65.0769 6.65521 65.5191C8.96033 67.2608 9.84486 67.8369 9.99228 67.6761C10.0459 67.6225 10.1129 66.1488 10.1263 64.407C10.1531 60.6958 10.2335 59.3828 10.5149 58.2842C10.6356 57.8421 10.783 57.1454 10.8366 56.7435C11.0778 55.2161 11.2252 54.4926 11.5469 53.26C11.7345 52.5633 12.1098 51.1431 12.3778 50.1115C12.6458 49.0799 13.1149 47.4855 13.4098 46.5611C13.718 45.6366 14.1335 44.3102 14.3345 43.6135C14.5489 42.9168 14.8304 42.0058 14.951 41.6038C15.1252 41.0143 16.2778 38.5089 16.8808 37.4237C16.9478 37.2897 17.0015 37.1156 17.0015 37.0352C17.0015 36.8878 17.7252 35.7892 18.087 35.4006C18.221 35.2533 18.355 34.9987 18.4087 34.8111C18.5159 34.3422 19.2262 33.2704 20.3519 31.8234C20.8746 31.1535 21.4107 30.43 21.5313 30.229C21.8663 29.6663 23.756 27.4691 24.7745 26.4642C25.257 25.9819 25.9539 25.2584 26.3158 24.8565C27.6559 23.3961 29.1704 22.1099 31.3549 20.5558C32.5744 19.6715 33.6198 18.9614 33.66 18.9614C33.7672 18.9614 34.96 18.1709 35.295 17.8762C35.4424 17.7556 35.9249 17.4475 36.3672 17.2197C36.8094 16.9785 37.4125 16.6168 37.7074 16.4292C38.7393 15.7325 39.463 15.3708 40.7898 14.8751C41.5269 14.5937 42.197 14.3258 42.264 14.2722C42.5052 14.098 44.5289 13.3477 45.5475 13.0664C46.0969 12.9056 46.8206 12.6912 47.1557 12.5706C49.233 11.8739 52.6102 11.0701 54.1917 10.9093C55.0092 10.8155 57.5689 10.7217 59.9009 10.6949C66.441 10.6145 68.6657 10.8691 73.7584 12.3429C76.5192 13.1334 77.2697 13.3611 77.6449 13.5219C78.9583 14.1114 79.4006 14.299 80.7274 14.8751C81.5449 15.2234 82.2686 15.545 82.3356 15.612C82.416 15.6655 83.2201 16.1479 84.1449 16.6838C85.0696 17.2197 86.1551 17.903 86.5572 18.2245C86.9592 18.5327 87.5087 18.8944 87.7634 19.0284C88.2324 19.2696 88.6345 19.5643 89.6798 20.4486C89.9881 20.7031 90.5644 21.1587 90.9664 21.44C91.3685 21.7348 91.9984 22.2439 92.3736 22.5789C93.62 23.7043 96.9436 27.0671 97.4127 27.67C97.6673 28.005 98.1632 28.5677 98.4983 28.9428C98.8467 29.3046 99.222 29.8271 99.356 30.0817C99.49 30.3362 99.8652 30.8855 100.214 31.2741C100.79 31.9708 100.924 32.1717 101.393 33.0426C101.487 33.2436 101.661 33.4713 101.768 33.5651C101.876 33.6589 101.969 33.7795 101.969 33.8465C101.969 33.9135 102.237 34.3824 102.572 34.9049C102.921 35.414 103.296 36.0705 103.417 36.3519C103.537 36.6198 103.765 37.0352 103.926 37.2495C104.073 37.4773 104.368 37.9864 104.583 38.3884C104.784 38.7903 104.998 39.2324 105.065 39.3664C105.132 39.487 105.333 39.9693 105.507 40.4382C105.869 41.4029 106.285 42.3541 106.714 43.2116C106.888 43.5465 107.156 44.27 107.33 44.8193C107.866 46.6147 108.282 47.6597 108.576 47.9678C108.67 48.0482 108.979 48.4636 109.273 48.8655C109.836 49.6292 110.734 50.3795 112.691 51.7192C113.334 52.1614 114.219 52.8313 114.648 53.193C115.09 53.5682 115.84 54.1309 116.323 54.439C116.819 54.7606 117.328 55.1357 117.462 55.2965C118.011 55.8994 120.504 57.6813 120.812 57.6813C120.946 57.6813 121 57.4803 121 56.9444C121 56.1941 120.558 52.7777 120.33 51.8532C120.263 51.5585 120.075 50.6206 119.928 49.7766C119.512 47.4989 119.285 46.4405 119.084 45.6902C118.976 45.3151 118.748 44.5112 118.588 43.8815C118.427 43.2518 118.186 42.4077 118.052 42.0058C117.931 41.6038 117.743 41.0009 117.636 40.666C117.475 40.1033 116.899 38.7099 116.175 37.1156C115.653 35.9231 113.361 31.3813 112.945 30.6846C112.731 30.3094 112.517 29.9209 112.463 29.8137C112.423 29.7065 112.208 29.3582 111.994 29.05C111.793 28.7419 111.619 28.4337 111.619 28.3667C111.619 28.2997 111.377 27.9112 111.083 27.4959C110.788 27.0939 110.547 26.7188 110.547 26.6652C110.547 26.625 110.319 26.2767 110.037 25.8881C109.756 25.4996 109.448 25.0307 109.354 24.8431C109.26 24.6421 108.912 24.1598 108.59 23.7713C108.268 23.3693 107.746 22.7128 107.451 22.3109C107.142 21.909 106.539 21.1855 106.111 20.7031C105.668 20.2208 105.092 19.5777 104.824 19.2562C103.913 18.2379 101.098 15.4244 100.428 14.8751C100.066 14.5803 99.5972 14.1516 99.3694 13.9238C99.1415 13.6961 98.6859 13.3343 98.3508 13.1333C98.0158 12.9324 97.3859 12.4769 96.9436 12.1285C96.5014 11.7802 95.9251 11.3514 95.6571 11.1773C95.3756 11.0031 94.5715 10.4538 93.8478 9.97145C91.0468 8.12254 86.383 5.59034 84.2119 4.77307C83.2335 4.39793 81.6789 3.76823 80.5934 3.3127C80.1511 3.12513 79.615 2.92416 79.3872 2.87057C78.7037 2.6964 78.1006 2.52222 76.6398 2.08009C75.8625 1.85233 74.8708 1.57098 74.4285 1.46379C73.9862 1.35661 73.41 1.20924 73.1553 1.14224C72.7399 1.03506 71.6811 0.88768 68.2636 0.458954C67.0709 0.311577 63.6802 0.0570145 62.2328 0.0034256C61.7235 -0.00997162 60.0885 0.0168228 58.6143 0.0704117Z" fill="white"/>
<path d="M42.599 38.1203C40.4815 38.2543 38.5382 38.6295 35.8311 39.4601C35.3218 39.6209 34.6919 39.7951 34.4641 39.8621C34.2228 39.9156 33.794 40.0764 33.5259 40.2238C32.293 40.8401 30.028 42.0727 29.6662 42.3273C27.4147 43.868 24.4395 47.0031 23.1797 49.1602C22.523 50.299 21.4508 52.5633 21.1158 53.5279C20.9282 54.0772 20.5797 55.4706 20.3385 56.6094C19.9364 58.5655 19.9096 58.8603 19.9096 61.7676C19.8962 63.7103 19.9498 65.0769 20.0436 65.452C20.1375 65.787 20.3385 66.7784 20.4859 67.6493C20.6467 68.5335 20.8478 69.4044 20.9148 69.592C21.2364 70.3958 21.4911 70.9318 21.9333 71.816C22.1879 72.3251 22.5364 73.0352 22.724 73.397C23.1261 74.2142 24.0642 75.5674 25.0962 76.8268C26.0879 78.0326 28.4198 80.1629 29.2909 80.6586C29.6394 80.8596 30.3095 81.2615 30.7517 81.5563C31.6229 82.1056 34.3837 83.3516 35.9651 83.9009C37.0908 84.2894 37.8547 84.4502 39.3826 84.611C40.0124 84.6646 41.3124 84.8254 42.264 84.9459C44.0464 85.1737 45.3464 85.1603 47.4907 84.8656C48.0804 84.7986 49.1123 84.678 49.769 84.611C51.4711 84.4368 52.1948 84.2894 53.1195 83.9411C53.5617 83.7669 54.1916 83.5392 54.5267 83.4186C54.8617 83.298 55.3442 83.097 55.5988 82.9765C55.8535 82.8559 56.4163 82.6281 56.8452 82.4673C57.2741 82.3066 57.9039 81.9448 58.2524 81.6635C58.6008 81.3955 59.2575 80.94 59.7266 80.672C60.7183 80.0691 62.0987 78.8365 62.3802 78.2872C62.5678 77.9254 62.5544 77.8853 62.1523 77.3761C61.9111 77.0814 61.4018 76.666 61.0266 76.4517C60.6513 76.2373 60.1555 75.8622 59.941 75.6344C59.7266 75.4066 59.2843 75.0315 58.9493 74.8037C58.6143 74.576 57.9174 73.9865 57.3947 73.5041C56.4968 72.6601 55.0628 71.5749 54.6473 71.4141C54.5401 71.3739 54.2184 71.5481 53.9102 71.8026C53.0391 72.5395 50.2649 73.9865 48.9381 74.4018C47.4773 74.8439 44.5691 75.0047 42.264 74.7769C41.3124 74.6832 39.932 74.3482 39.1815 74.0401C39.0341 73.9731 38.7393 73.8525 38.5114 73.7721C38.297 73.6783 37.5197 73.2764 36.796 72.861C33.66 71.0791 31.3682 67.9574 30.7786 64.6481C30.5507 63.3218 30.5507 59.2086 30.792 58.2172C31.0064 57.3463 31.9445 55.1089 32.3198 54.5327C33.1105 53.3671 34.129 52.2551 35.2548 51.3708C36.8362 50.098 37.0238 49.9909 38.1362 49.5889C41.098 48.5171 41.5269 48.4367 44.0732 48.3429C45.7082 48.2893 46.2309 48.3161 47.3701 48.5573C48.1206 48.7047 48.8175 48.8654 48.9113 48.8922C49.5948 49.12 51.7525 49.9373 52.2886 50.1784C52.9185 50.4598 52.9453 50.4598 53.1999 50.232C53.3473 50.098 53.4411 49.9239 53.4143 49.8435C53.3205 49.6157 53.803 46.8156 54.0442 46.1591C54.1648 45.8375 54.5133 45.114 54.8215 44.5513C55.1164 44.002 55.5452 43.2249 55.7597 42.823C55.9607 42.4211 56.3225 41.8985 56.537 41.644C56.7648 41.4028 56.939 41.1081 56.939 41.0143C56.939 40.8267 55.3442 40.0362 54.6071 39.8621C54.3793 39.7951 53.5885 39.5673 52.8514 39.3261C49.5546 38.2811 46.3515 37.906 42.599 38.1203Z" fill="white"/>
<path d="M70.0059 38.5892C67.9286 38.7902 66.1462 39.2859 64.3771 40.1434C63.4122 40.5989 61.7101 41.7913 60.839 42.5952C60.3163 43.0909 58.8153 44.98 58.8153 45.1542C58.8153 45.1944 58.6545 45.4623 58.4669 45.7571C58.2793 46.0384 58.0648 46.4806 58.0112 46.7217C57.9442 46.9629 57.7968 47.4988 57.6762 47.9007C57.2339 49.3879 56.8051 51.6119 56.8051 52.4962C56.8051 53.3805 56.9123 53.97 57.4885 56.2074C57.7834 57.3328 57.8102 57.3998 58.3865 58.619C59.4586 60.8431 62.0184 63.2145 65.0204 64.7553C68.3575 66.4702 69.1616 66.5774 78.1006 66.5506C85.4717 66.5238 85.7531 66.5372 87.1201 67.2875C87.4819 67.4884 88.0046 67.8904 88.2861 68.1985C88.7015 68.6541 88.8221 68.922 88.9562 69.6321C89.1438 70.7173 89.1438 71.0255 88.9427 71.8829C88.7551 72.7136 87.7902 73.772 86.7582 74.2946L86.0882 74.6295L76.8945 74.6697L67.7008 74.6965L67.3389 75.4736C67.1379 75.8889 66.776 76.599 66.5214 77.0411C66.2668 77.4833 66.0523 77.9254 66.0523 78.0326C66.0523 78.1398 65.9719 78.3273 65.8647 78.4345C65.6235 78.7159 64.2163 81.1677 63.8946 81.8644C63.7606 82.1591 63.5328 82.6146 63.3988 82.8692C62.8627 83.8472 62.5947 84.4636 62.6751 84.5305C62.8225 84.6779 87.7098 84.6243 88.4603 84.4636C90.6046 84.0348 93.0973 82.8826 94.6653 81.5964C95.2148 81.1543 95.8715 80.6184 96.1396 80.404C96.9437 79.7877 98.4849 77.2287 99.021 75.6477C99.5972 73.906 99.9993 71.2934 99.8787 69.8733C99.7983 68.8416 99.1416 65.9075 98.8065 65.1036C98.6993 64.8491 98.2168 64.0318 97.7344 63.2815C96.7694 61.7809 95.2952 60.2402 93.9819 59.3559C93.553 59.0612 93.1643 58.7798 93.1241 58.7396C93.0839 58.686 92.454 58.3913 91.7169 58.0831C90.9798 57.775 90.1623 57.4266 89.9077 57.306C89.318 57.0515 88.8891 56.9309 86.6242 56.4486C86.2222 56.3682 82.9521 56.2744 78.4491 56.2208L70.944 56.1404L70.1399 55.7653C69.2286 55.3366 68.3977 54.5997 68.143 53.9968C68.0492 53.769 67.9018 53.2599 67.808 52.8579C67.6472 52.1881 67.6606 52.0273 67.9152 51.1832C68.076 50.6607 68.2771 50.1516 68.3709 50.0444C68.6389 49.7228 69.3626 49.2539 70.0193 48.9726C70.609 48.718 70.9976 48.7046 80.513 48.7046C88.219 48.7046 90.4438 48.6644 90.6046 48.5304C90.7922 48.3965 91.7839 46.7753 91.7839 46.6279C91.7839 46.5877 92.0252 46.1724 92.32 45.6901C92.6149 45.2078 92.8561 44.779 92.8561 44.7254C92.8561 44.6182 93.821 42.7425 94.1829 42.1396C94.3303 41.8851 94.6519 41.2822 94.8932 40.7999C95.1344 40.3175 95.4695 39.728 95.6303 39.4735C96.2602 38.549 96.3272 38.5758 92.4942 38.482C86.8387 38.3346 71.8152 38.4016 70.0059 38.5892Z" fill="white"/>
<path d="M114.5 62.0088C114.286 62.1696 113.924 62.5045 113.696 62.7591C112.811 63.7505 112.61 63.9247 112.383 64.0185C112.249 64.0721 112.048 64.2999 111.914 64.5276C111.793 64.7554 111.431 65.2645 111.123 65.653C110.158 66.8589 109.836 67.5823 109.139 70.2083C109.019 70.6505 108.804 71.3069 108.684 71.6821C108.55 72.0438 108.375 72.5931 108.295 72.8879C108.215 73.1827 108.054 73.7856 107.933 74.2277C107.799 74.6698 107.652 75.3263 107.585 75.7015C107.397 76.8135 106.982 78.2738 106.258 80.3237C105.883 81.3956 105.521 82.4406 105.467 82.6684C105.414 82.8827 104.811 84.1823 104.127 85.5489C102.854 88.1079 102.572 88.6304 101.849 89.7558C101.621 90.131 101.433 90.4927 101.433 90.5731C101.433 90.6669 101.313 90.8411 101.165 90.975C101.018 91.109 100.897 91.2698 100.897 91.3368C100.897 91.4038 100.602 91.8325 100.254 92.288C99.9055 92.7436 99.3828 93.4536 99.1148 93.869C98.8467 94.2709 98.3911 94.847 98.0962 95.1418C97.8014 95.4231 97.3993 95.9189 97.1849 96.227C96.2736 97.5668 91.9447 101.814 90.0417 103.234C89.6932 103.489 88.9561 104.038 88.4067 104.453C87.8706 104.869 87.2675 105.284 87.0933 105.378C86.919 105.472 86.2087 105.967 85.5253 106.463C84.8418 106.972 84.2387 107.387 84.1985 107.387C84.1583 107.387 83.3273 107.789 82.3624 108.272C81.3841 108.767 80.1779 109.344 79.6552 109.558C77.0687 110.63 75.9429 111.058 74.9646 111.353C74.3749 111.541 73.5306 111.795 73.0883 111.943C71.5873 112.425 69.8719 112.894 69.2018 113.015C67.0307 113.39 65.5431 113.55 62.9699 113.684C60.5308 113.818 59.6596 113.805 57.3143 113.631C53.3071 113.323 51.967 113.068 47.0887 111.675C44.0732 110.804 40.2537 109.25 38.1764 108.017C37.7744 107.789 37.1177 107.401 36.7156 107.186C36.327 106.959 35.6301 106.53 35.1744 106.222C34.7321 105.914 34.1157 105.512 33.8208 105.338C32.7889 104.735 29.2642 101.787 27.2807 99.8578C25.4714 98.0893 20.8612 92.7972 20.4323 92.0067C20.3653 91.8727 20.1509 91.5913 19.9633 91.377C19.5612 90.9215 18.8241 89.7424 18.2746 88.6304C18.0736 88.2285 17.6849 87.5586 17.4303 87.1566C16.787 86.1518 16.4654 85.5623 16.4654 85.4149C16.4654 85.3345 16.3448 85.0264 16.2107 84.7048C16.0633 84.3967 15.5809 83.3382 15.1386 82.3468C14.6829 81.3688 14.3211 80.4711 14.3211 80.3639C14.3211 80.2567 14.2139 80.0022 14.0932 79.8146C13.9592 79.6136 13.785 79.3323 13.7046 79.1849C13.6242 79.0375 13.4366 78.85 13.3025 78.783C13.1551 78.7026 12.6726 78.3408 12.2036 77.9523C11.7479 77.5638 11.0912 77.0814 10.7294 76.8805C10.1799 76.5589 8.65209 75.4201 8.0088 74.8306C7.87478 74.7234 7.12427 74.0535 6.33356 73.3568C5.54285 72.6601 4.59132 71.7893 4.21606 71.4141C3.0501 70.2753 1.13363 68.6676 0.69137 68.4532C0.0480803 68.1451 -0.0725366 68.2924 0.0346784 69.3241C0.141893 70.4495 0.838791 73.5712 1.32126 75.0986C1.65631 76.1302 1.97795 77.4164 2.12537 78.1801C2.28619 79.0911 3.21092 81.9717 3.51917 82.5746C3.62638 82.7755 3.85421 83.4052 4.05524 83.9679C4.24287 84.5307 4.67173 85.5355 5.02018 86.1786C5.35522 86.8217 5.81089 87.7997 6.02532 88.3491C6.25315 88.885 6.5882 89.6085 6.77582 89.9568C6.97685 90.2918 7.52633 91.2698 7.99539 92.1139C8.46446 92.9579 9.18816 94.1503 9.57681 94.7666C9.97887 95.3695 10.3005 95.9055 10.3005 95.9591C10.3005 95.9992 10.7294 96.5888 11.2386 97.2586C11.7613 97.9419 12.1768 98.5582 12.1768 98.6252C12.1768 98.7056 12.5654 99.2683 13.0479 99.898C13.5304 100.514 14.1469 101.345 14.4149 101.747C14.6695 102.135 15.1788 102.738 15.5272 103.087C15.8757 103.422 16.2912 103.904 16.4654 104.159C16.6396 104.413 17.1489 104.989 17.5911 105.445C18.0468 105.9 18.5963 106.476 18.8241 106.731C19.454 107.441 21.0354 108.915 21.5581 109.263C21.8127 109.437 22.3354 109.853 22.6973 110.201C23.0725 110.536 23.555 110.938 23.7694 111.085C23.9972 111.219 24.7745 111.795 25.5116 112.345C26.2487 112.894 27.1869 113.564 27.5889 113.832C27.991 114.086 28.6075 114.515 28.9559 114.77C29.291 115.024 30.0683 115.493 30.6714 115.828C31.2745 116.163 31.9714 116.565 32.2394 116.739C33.2445 117.396 37.1177 119.258 38.9135 119.941C41.0578 120.772 43.0681 121.455 44.3413 121.777C44.8238 121.897 45.6413 122.112 46.1505 122.259C47.0619 122.514 47.9062 122.728 49.6082 123.13C50.5866 123.358 52.1814 123.612 53.1195 123.666C53.4948 123.693 55.036 123.84 56.5638 123.987C60.1689 124.349 62.1256 124.336 65.7173 123.934C71.1718 123.318 71.9625 123.184 75.4738 122.192C76.6532 121.857 77.712 121.589 77.8058 121.589C78.114 121.589 80.4191 120.759 80.8614 120.491C81.0892 120.357 81.3439 120.249 81.4243 120.249C81.5181 120.249 81.9872 120.075 82.4696 119.847C82.9521 119.633 83.4346 119.446 83.5284 119.446C83.6222 119.446 84.6541 118.963 85.8067 118.374C86.9593 117.784 87.9644 117.302 88.0314 117.302C88.1118 117.302 88.5675 117.061 89.0499 116.766C89.5324 116.471 89.9613 116.23 90.0015 116.23C90.0417 116.23 90.2427 116.109 90.4571 115.962C90.6582 115.801 91.1406 115.52 91.5025 115.319C92.6014 114.729 96.9436 111.675 98.3776 110.496C98.7931 110.147 99.6106 109.478 100.187 109.009C101.809 107.682 102.693 106.838 103.135 106.182C103.363 105.847 103.779 105.391 104.073 105.163C104.355 104.936 104.744 104.453 104.918 104.092C105.105 103.73 105.588 103.047 106.003 102.564C106.405 102.082 106.995 101.318 107.303 100.876C107.612 100.421 108.188 99.6837 108.59 99.2415C108.992 98.786 109.367 98.2903 109.421 98.1161C109.528 97.741 110.185 96.7763 110.761 96.1332C110.989 95.8787 111.377 95.1954 111.619 94.6059C111.86 94.0298 112.222 93.3599 112.423 93.1321C112.986 92.4756 113.803 91.1626 113.977 90.6401C114.178 90.0506 114.594 89.1261 115.438 87.3844C115.787 86.6609 116.122 85.8972 116.175 85.7097C116.242 85.5087 116.51 84.745 116.778 84.0081C117.046 83.2713 117.355 82.4004 117.449 82.0654C117.542 81.7305 117.73 81.1544 117.851 80.7927C117.985 80.4175 118.172 79.8146 118.266 79.4529C118.36 79.0777 118.588 78.2069 118.775 77.5102C119.553 74.6564 120.357 69.8198 120.437 67.6359L120.477 66.2693L119.861 65.5995C119.526 65.2377 118.99 64.7822 118.682 64.5678C118.373 64.3535 117.864 63.9783 117.556 63.7104C116.738 63.0137 115.8 62.317 115.599 62.25C115.519 62.2232 115.318 62.0892 115.17 61.9552C114.889 61.7141 114.875 61.7141 114.5 62.0088Z" fill="white"/>
</svg>
